# xmcd CD database file
# Copyright (C) 1993-1998 Ti Kan
#
# Track frame offsets:
#  150
#  15845
#  30602
#  46782
#  69605
#  89250
#  103917
#  126400
#  141015
#  156100
#  172180
#  183195
#  201525
#  226055
#  247995
#  267700
#  280800
#  295700
#  315222
#
# Disc length: 4514 seconds
#
# Revision: 1
# Processed by: cddbd v1.4b41PL1 Copyright (c) Steve Scherf et al.
# Submitted via: CDWizzard Release:4.35
#
DISCID=0911a013
DTITLE=Jimmy Brisco and The Little Beavers - Jimmy Brisco and The Little Beav
DTITLE=ers
DYEAR=1900
DGENRE=
TTITLE0=Forever
TTITLE1=Rockin' And Dancing
TTITLE2=I Only Feel This Way When I'm With You
TTITLE3=Into The Milky Way
TTITLE4=My Ebony Princess
TTITLE5=I'll Need Your Love (Theme From Forever)
TTITLE6=Pack Up
TTITLE7=Together (We'll Find The Way)
TTITLE8=Marching To Higher Ground
TTITLE9=Country To The City (I'm Going Back To the Country)
TTITLE10=My Fallen Angel (You Turned Out To Be A Devil)
TTITLE11=Theme From My Ebony Princess
TTITLE12=Invitation To The World
TTITLE13=Living For Today
TTITLE14=So Sweet The Love
TTITLE15=Here's Love Coming
TTITLE16=I'll Make You Happy
TTITLE17=Ain't Nothing New Under The Sun
TTITLE18=True Love
EXTD=
EXTT0=
EXTT1=
EXTT2=
EXTT3=
EXTT4=
EXTT5=
EXTT6=
EXTT7=
EXTT8=
EXTT9=
EXTT10=
EXTT11=
EXTT12=
EXTT13=
EXTT14=
EXTT15=
EXTT16=
EXTT17=
EXTT18=
PLAYORDER=
